<svg width="52" height="52" viewBox="0 0 52 52" fill="none" xmlns="http://www.w3.org/2000/svg">
<g filter="url(#filter0_d)">
<circle cx="26" cy="24" r="21" fill="url(#paint0_linear)"/>
<circle cx="26" cy="24" r="21" stroke="#653024"/>
</g>
<path d="M34.875 22.2083H33.3125L29.7715 17.7819C29.5763 17.538 29.3287 17.341 29.047 17.2057C28.7654 17.0703 28.457 17 28.1445 17H21.1813C20.3294 17 19.5635 17.5186 19.2471 18.3096L16.6458 22.2819C15.7487 22.5143 13 23.3219 13 24.2917V27.9375C13 28.2253 13.2331 28.4583 13.5208 28.4583H18.2083C18.2083 30.1842 19.6074 31.5833 21.3333 31.5833C23.0592 31.5833 24.4583 30.1842 24.4583 28.4583H28.625C28.625 30.1842 30.0241 31.5833 31.75 31.5833C33.4759 31.5833 34.875 30.1842 34.875 28.4583H37.4792C37.7669 28.4583 38 28.2253 38 27.9375V25.3333C38 23.6074 36.6009 22.2083 34.875 22.2083ZM21.3333 30.0208C20.4717 30.0208 19.7708 29.32 19.7708 28.4583C19.7708 27.5967 20.4717 26.8958 21.3333 26.8958C22.195 26.8958 22.8958 27.5967 22.8958 28.4583C22.8958 29.32 22.195 30.0208 21.3333 30.0208ZM23.6771 22.2083H19.9313L21.1813 19.0833H23.6771V22.2083ZM25.2396 22.2083V19.0833H28.1445L30.6445 22.2083H25.2396ZM31.75 30.0208C30.8883 30.0208 30.1875 29.32 30.1875 28.4583C30.1875 27.5967 30.8883 26.8958 31.75 26.8958C32.6117 26.8958 33.3125 27.5967 33.3125 28.4583C33.3125 29.32 32.6117 30.0208 31.75 30.0208Z" fill="#653024"/>
<defs>
<filter id="filter0_d" x="0.5" y="0.5" width="51" height="51" filterUnits="userSpaceOnUse" color-interpolation-filters="sRGB">
<feFlood flood-opacity="0" result="BackgroundImageFix"/>
<feColorMatrix in="SourceAlpha" type="matrix" values="0 0 0 0 0 0 0 0 0 0 0 0 0 0 0 0 0 0 127 0"/>
<feOffset dy="2"/>
<feGaussianBlur stdDeviation="2"/>
<feColorMatrix type="matrix" values="0 0 0 0 0.372549 0 0 0 0 0.34902 0 0 0 0 0.313726 0 0 0 0.12 0"/>
<feBlend mode="normal" in2="BackgroundImageFix" result="effect1_dropShadow"/>
<feBlend mode="normal" in="SourceGraphic" in2="effect1_dropShadow" result="shape"/>
</filter>
<linearGradient id="paint0_linear" x1="11.1463" y1="9.5" x2="39.0808" y2="40.6708" gradientUnits="userSpaceOnUse">
<stop stop-color="white"/>
<stop offset="0.0001" stop-color="white"/>
<stop offset="1" stop-color="#FEFAF7"/>
</linearGradient>
</defs>
</svg>
