<?xml version="1.0" encoding="UTF-8"?>
<svg width="912px" height="24px" viewBox="0 0 912 24" version="1.1" xmlns="http://www.w3.org/2000/svg" xmlns:xlink="http://www.w3.org/1999/xlink">
    <!-- Generator: Sketch 61.2 (89653) - https://sketch.com -->
    <title>Divider</title>
    <desc>Created with Sketch.</desc>
    <g id="Page-1" stroke="none" stroke-width="1" fill="none" fill-rule="evenodd">
        <g id="Divider" fill="#653024" fill-rule="nonzero">
            <path d="M502.901046,11.6802803 C504.303971,11.6802803 504.303971,9.50688248 502.901046,9.50688248 C501.499962,9.50688248 501.499962,11.6802803 502.901046,11.6802803" id="Fill-4"></path>
            <path d="M540.569165,11.6802803 C541.970863,11.6802803 541.970863,9.50688248 540.569165,9.50688248 C539.167468,9.50688248 539.167468,11.6802803 540.569165,11.6802803" id="Fill-6"></path>
            <path d="M507.611425,11.6802803 C509.013122,11.6802803 509.013122,9.50688248 507.611425,9.50688248 C506.209114,9.50688248 506.209114,11.6802803 507.611425,11.6802803" id="Fill-8"></path>
            <path d="M511.958772,11.6802803 C513.359856,11.6802803 513.359856,9.50688248 511.958772,9.50688248 C510.557688,9.50688248 510.557688,11.6802803 511.958772,11.6802803" id="Fill-10"></path>
            <path d="M517.029789,11.6802803 C518.432713,11.6802803 518.432713,9.50688248 517.029789,9.50688248 C515.628705,9.50688248 515.628705,11.6802803 517.029789,11.6802803" id="Fill-12"></path>
            <path d="M521.740167,11.6802803 C523.141251,11.6802803 523.141251,9.50688248 521.740167,9.50688248 C520.339083,9.50688248 520.339083,11.6802803 521.740167,11.6802803" id="Fill-14"></path>
            <path d="M527.174827,11.6802803 L527.53614,11.6802803 C528.93845,11.6802803 528.93845,9.50688248 527.53614,9.50688248 L527.174827,9.50688248 C525.772516,9.50688248 525.772516,11.6802803 527.174827,11.6802803" id="Fill-16"></path>
            <path d="M533.246845,11.2606299 L531.986238,11.2606299 C532.554891,12.5384136 534.427706,11.4323915 533.862733,10.1631959 C533.411245,9.14857549 531.819383,9.14673519 531.368509,10.1631959 C530.80599,11.4330049 532.678805,12.5396404 533.246845,11.2606299" id="Fill-18"></path>
            <path d="M537.260546,11.2606299 L535.999325,11.2606299 C536.567979,12.5384136 538.441407,11.4323915 537.876434,10.1631959 C537.424946,9.14857549 535.833084,9.14673519 535.38221,10.1631959 C534.819691,11.4330049 536.691892,12.5396404 537.260546,11.2606299" id="Fill-20"></path>
            <path d="M1.99535141,18.0863922 C0.508948279,18.0863922 0.508948279,17 1.99535141,17 L410.765747,17 C412.25215,17 412.25215,18.0863922 410.765747,18.0863922 L1.99535141,18.0863922 Z" id="Fill-22"></path>
            <path d="M503.110998,18.0863922 C501.629667,18.0863922 501.629667,17 503.110998,17 L910.889002,17 C912.370333,17 912.370333,18.0863922 910.889002,18.0863922" id="Fill-22-Copy"></path>
            <path d="M412.86999,11.6802803 C411.468906,11.6802803 411.468906,9.50688248 412.86999,9.50688248 C414.271687,9.50688248 414.271687,11.6802803 412.86999,11.6802803" id="Fill-25"></path>
            <path d="M375.20365,11.6802803 C373.800726,11.6802803 373.800726,9.50688248 375.20365,9.50688248 C376.604734,9.50688248 376.604734,11.6802803 375.20365,11.6802803" id="Fill-27"></path>
            <path d="M408.160164,11.6802803 C406.758466,11.6802803 406.758466,9.50688248 408.160164,9.50688248 C409.562474,9.50688248 409.562474,11.6802803 408.160164,11.6802803" id="Fill-29"></path>
            <path d="M403.813429,11.6802803 C402.411732,11.6802803 402.411732,9.50688248 403.813429,9.50688248 C405.214513,9.50688248 405.214513,11.6802803 403.813429,11.6802803" id="Fill-31"></path>
            <path d="M398.7418,11.6802803 C397.340102,11.6802803 397.340102,9.50688248 398.7418,9.50688248 C400.142884,9.50688248 400.142884,11.6802803 398.7418,11.6802803" id="Fill-33"></path>
            <path d="M394.031422,11.6802803 C392.630338,11.6802803 392.630338,9.50688248 394.031422,9.50688248 C395.432506,9.50688248 395.432506,11.6802803 394.031422,11.6802803" id="Fill-35"></path>
            <path d="M388.597375,11.6802803 L388.234835,11.6802803 C386.833751,11.6802803 386.833751,9.50688248 388.234835,9.50688248 L388.597375,9.50688248 C389.999072,9.50688248 389.999072,11.6802803 388.597375,11.6802803" id="Fill-37"></path>
            <path d="M382.52597,11.2606299 L383.787191,11.2606299 C383.217311,12.5384136 381.344496,11.4323915 381.909469,10.1631959 C382.360343,9.14857549 383.952818,9.14673519 384.403693,10.1631959 C384.966212,11.4330049 383.092783,12.5396404 382.52597,11.2606299" id="Fill-39"></path>
            <path d="M459.778515,14.6024974 C458.294004,15.6398148 457.730871,16.8912209 457.449305,18.2708347 C457.149336,17.1617454 456.642025,16.1182936 455.734143,15.180966 C455.395527,14.8331487 454.97103,14.5344062 454.512795,14.2847384 C455.561154,13.8976614 456.462289,13.1621536 457.013153,12.1634825 C458.075008,13.0842474 459.408614,13.7068833 460.90294,14.0442722 C460.508502,14.1816814 460.125105,14.3601908 459.778515,14.6024974 M449.534775,12.4487295 C448.485803,11.8751684 446.946696,10.6470729 446.968779,9.31776068 C446.981662,8.58654697 447.64049,7.94060062 448.32631,7.76209123 C449.60348,7.43022326 450.375794,8.72579656 450.684351,9.77292895 C450.989228,10.8114733 450.805198,13.0002069 450.725451,12.9707621 C450.308316,12.8204707 449.902222,12.6499359 449.534775,12.4487295 M456.074599,3.09876349 C456.154345,2.90921229 456.255562,2.73008946 456.386223,2.56936967 C457.250552,1.49340586 458.630166,2.44238877 458.768802,3.60791398 C458.863271,4.3998577 458.719727,5.22983434 458.578638,6.00398846 C458.303206,7.51058316 457.615546,8.87424766 456.827896,10.1728881 C456.363526,9.42511169 455.985651,8.59820222 455.859897,8.0706487 C455.641514,7.15601812 455.607775,6.21071582 455.705925,5.27890908 C455.778923,4.59431638 455.790579,3.77538155 456.074599,3.09876349 M464.257813,9.52142088 C464.500732,9.06318544 465.944757,7.11246428 466.607879,8.88958352 C466.973486,9.87107844 466.22571,11.0372171 465.617183,11.7236501 C465.101898,12.3033455 464.417305,12.6456419 463.681184,12.8450081 C463.300242,11.8267071 463.723511,10.52868 464.257813,9.52142088 M497.331738,13.7614789 C497.250764,12.9965263 497.020113,12.2340275 496.612179,11.4991331 C496.1748,10.71087 495.521493,10.0716715 494.747339,9.61343603 C493.063462,8.61476494 490.978398,8.43625556 489.06387,8.5068005 C485.372222,8.64114262 482.594591,10.9574706 480.008966,13.3161256 C478.533043,14.662614 476.65348,15.3668366 474.692944,15.6250924 C473.710222,15.7539136 472.715232,15.7815182 471.724535,15.7674092 C470.529565,15.7496196 469.261596,15.6729403 468.096685,15.3938277 C466.904782,15.1085807 465.905497,14.5534226 464.812971,14.0369109 C464.620966,13.9448958 464.471901,13.8344776 464.328357,13.7209923 C465.683434,13.2320851 466.823195,12.318068 467.454419,10.8366241 C467.998535,9.55822694 467.562997,6.30886532 465.412909,7.09835529 C463.401458,7.83508992 462.390518,10.3158183 462.411989,12.3291098 C462.415669,12.5873656 462.481307,12.8137229 462.549398,13.0394667 C462.218143,13.0689116 461.89425,13.0738191 461.57281,13.0689116 C459.958865,12.7683288 458.585385,12.1064331 457.556042,11.0562336 C459.028898,8.6460501 460.138601,5.98926603 459.794464,3.10367097 C459.612888,1.57315233 457.813685,-0.224210246 456.261083,1.0419182 C454.293799,2.64543553 454.36005,6.12422158 454.809697,8.35896283 C455.047096,9.52878209 455.534163,10.4863531 456.175202,11.2893386 C456.166,11.3236909 456.16232,11.3568164 456.161706,11.3917821 C455.342158,13.3326883 453.465662,13.6559682 451.652964,13.2443538 C451.941278,13.308151 451.99158,11.8119846 452.000168,11.6573992 C452.127149,9.58153744 451.549294,7.56517881 449.376509,6.82660389 C447.428242,6.16409482 445.925941,7.93017224 445.989125,9.70974521 C446.063964,11.8150518 448.356368,13.2719583 450.353097,14.0283229 C450.321198,14.0951872 450.29114,14.162665 450.259241,14.2270756 C448.979617,16.6998293 445.79528,16.3636673 443.83413,15.2496706 C441.794461,14.0915066 440.070097,12.0591987 438.370271,10.4734709 C435.538044,7.83508992 431.398589,6.38309087 427.545608,6.45731642 C425.092485,6.5051643 422.715427,7.5559773 421.099027,9.412843 C419.456863,11.2985401 418.433655,13.9320137 419.429259,16.3188866 C420.491114,18.8627988 422.665738,20.2503872 425.431714,20.3718472 C428.500726,20.5068028 430.408506,17.4212281 429.058337,14.6693617 C428.340006,13.2063209 427.282445,12.4094697 425.667886,12.2328006 C424.490706,12.1027525 423.422716,12.8762932 423.092689,13.9559376 C422.528329,15.7980809 425.34706,16.7317279 425.520048,14.9153489 C425.542745,14.6705886 425.334791,14.4620209 425.120703,14.3920894 C424.807238,14.2896459 424.626888,14.3792073 424.382128,14.5755063 C424.337347,14.6123123 424.33796,14.6687483 424.314036,14.7159827 C423.879725,14.0761707 424.299314,13.6050532 425.667886,13.3198062 C427.084306,13.2032537 427.87625,14.5374734 428.243083,15.6122103 C428.806829,17.2678695 427.911215,18.799615 426.267825,19.2167504 C423.70551,19.8688311 421.224168,18.1923151 420.429157,15.7563674 C419.804681,13.8436791 420.304016,11.3844209 421.595295,9.83488582 C423.97174,6.98241621 428.449811,7.18178236 431.606544,8.09457264 C434.122851,8.82149231 436.690687,10.3102974 438.690483,12.0303673 C440.387243,13.4891141 442.56064,16.4710183 444.990454,16.7973654 C446.687213,17.025563 448.12817,16.7875505 449.2802,16.1544862 C448.91398,17.300995 448.809696,18.4904441 449.932281,19.2989506 C451.05916,20.1111376 452.695802,20.0025598 453.482225,18.7487 C454.0564,17.8316157 454.327538,15.5146742 452.772482,15.2539646 C451.692224,15.0717747 450.569639,16.2428208 451.555428,17.1660394 C452.065805,17.6445182 452.835052,16.8777253 452.323448,16.3974062 C452.904983,16.9427493 453.046687,17.2108201 452.684761,17.9745459 C452.378043,18.6223325 451.710013,18.8493032 451.051798,18.6873566 C449.116413,18.2101047 450.497254,14.8834503 451.95048,14.6282616 C453.566266,14.344855 455.420678,16.2348461 456.110791,17.5206045 C456.654294,18.5321577 456.767166,19.7099516 456.79293,20.8392842 C456.804585,21.3919885 456.702142,21.9422391 456.769006,22.4973972 C456.824215,22.9574729 457.267115,23.717518 457.748047,23.1746287 C458.155981,22.7157798 458.078075,21.532465 458.122242,20.9521561 C458.241862,19.3762433 458.325289,17.7199706 459.36138,16.4348257 C460.117131,15.4999518 461.162423,14.8429636 462.374569,14.8460308 C463.443172,14.849098 464.197083,15.7588211 464.030842,16.8157684 C463.862147,17.4242953 463.479978,17.8303888 462.882493,18.0358893 C461.22438,18.510074 461.043417,17.1065363 462.003441,17.0415123 C462.693555,16.9218926 462.39972,15.8741467 461.7139,15.9937664 C459.587124,16.3648942 460.347169,18.7701702 462.082574,19.1486592 C463.985448,19.5645676 465.78281,17.2666427 464.979211,15.517128 C464.944246,15.4416755 464.894557,15.3901471 464.857138,15.3202156 C465.51658,15.6441089 466.207307,15.8968438 466.899874,16.1440579 C468.261085,16.6292844 469.50513,16.7808027 470.934432,16.8488939 C471.740484,16.8881537 472.550218,16.9120776 473.358724,16.8875403 C474.919915,16.8396924 476.537541,16.6305113 477.938625,15.8956169 C479.486933,15.0840433 480.586207,14.2595876 481.891596,13.0689116 C484.254545,10.9114631 487.257919,9.4521028 490.437349,9.39014593 C491.637227,9.36744886 493.611872,9.88212026 494.55472,10.6759043 C496.76063,12.53277 496.465568,15.7269225 495.262624,17.977613 C494.217332,19.9363088 492.212015,20.2749246 490.17848,20.1369019 C487.902639,19.9823164 486.396044,18.0917118 487.445017,15.9305827 C487.852337,15.0907911 488.715439,14.8374427 489.578541,15.0226999 C491.117648,15.353341 490.610338,17.0224958 489.160792,16.8096341 C488.476813,16.7084174 488.181138,17.754323 488.872478,17.8573799 C489.979727,18.0217803 491.621891,17.5752001 491.865424,16.3023239 C492.148218,14.8184263 490.380913,13.7154714 489.079206,13.8455194 C487.741305,13.9780212 486.554923,15.0325149 486.134721,16.2882149 C485.084521,19.4302255 488.121635,21.0840445 490.710941,21.2594867 C492.821155,21.40119 494.712986,20.574894 495.899368,18.8032957 C496.923804,17.2690964 497.514541,15.5036324 497.331738,13.7614789" id="Fill-43"></path>
            <path d="M378.512883,11.2606299 L379.772877,11.2606299 C379.204223,12.5384136 377.330795,11.4323915 377.896381,10.1631959 C378.347869,9.14857549 379.937891,9.14673519 380.389992,10.1631959 C380.952511,11.4330049 379.079696,12.5396404 378.512883,11.2606299" id="Fill-41"></path>
        </g>
    </g>
</svg>