<svg width="52" height="52" viewBox="0 0 52 52" fill="none" xmlns="http://www.w3.org/2000/svg">
<g filter="url(#filter0_d)">
<circle cx="26" cy="24" r="21" fill="url(#paint0_linear)"/>
<circle cx="26" cy="24" r="21" stroke="#653024"/>
</g>
<path d="M31.0455 18.0303C31.0455 18.0303 20.8182 17.4621 19.6818 18.0303C18.5455 18.5984 14 24.8485 14 24.8485V28.2576H16.2727C16.2727 29.1617 16.6319 30.0288 17.2712 30.6681C17.9106 31.3075 18.7777 31.6666 19.6818 31.6666C20.586 31.6666 21.4531 31.3075 22.0924 30.6681C22.7317 30.0288 23.0909 29.1617 23.0909 28.2576H29.9091C29.9091 29.1617 30.2683 30.0288 30.9076 30.6681C31.5469 31.3075 32.414 31.6666 33.3182 31.6666C34.2223 31.6666 35.0894 31.3075 35.7288 30.6681C36.3681 30.0288 36.7273 29.1617 36.7273 28.2576H39V24.8485C39 23.5871 37.9886 22.5757 36.7273 22.5757H34.4545L31.0455 18.0303ZM20.25 19.7348H24.7955V22.5757H17.9773L20.25 19.7348ZM26.5 19.7348H30.4773L32.7045 22.5757H26.5V19.7348ZM19.6818 26.553C20.1339 26.553 20.5674 26.7326 20.8871 27.0523C21.2068 27.3719 21.3864 27.8055 21.3864 28.2576C21.3864 28.7096 21.2068 29.1432 20.8871 29.4629C20.5674 29.7825 20.1339 29.9621 19.6818 29.9621C19.2297 29.9621 18.7962 29.7825 18.4765 29.4629C18.1569 29.1432 17.9773 28.7096 17.9773 28.2576C17.9773 27.8055 18.1569 27.3719 18.4765 27.0523C18.7962 26.7326 19.2297 26.553 19.6818 26.553ZM33.3182 26.553C33.7703 26.553 34.2038 26.7326 34.5235 27.0523C34.8431 27.3719 35.0227 27.8055 35.0227 28.2576C35.0227 28.7096 34.8431 29.1432 34.5235 29.4629C34.2038 29.7825 33.7703 29.9621 33.3182 29.9621C32.8661 29.9621 32.4326 29.7825 32.1129 29.4629C31.7932 29.1432 31.6136 28.7096 31.6136 28.2576C31.6136 27.8055 31.7932 27.3719 32.1129 27.0523C32.4326 26.7326 32.8661 26.553 33.3182 26.553Z" fill="#653024"/>
<defs>
<filter id="filter0_d" x="0.5" y="0.5" width="51" height="51" filterUnits="userSpaceOnUse" color-interpolation-filters="sRGB">
<feFlood flood-opacity="0" result="BackgroundImageFix"/>
<feColorMatrix in="SourceAlpha" type="matrix" values="0 0 0 0 0 0 0 0 0 0 0 0 0 0 0 0 0 0 127 0"/>
<feOffset dy="2"/>
<feGaussianBlur stdDeviation="2"/>
<feColorMatrix type="matrix" values="0 0 0 0 0.372549 0 0 0 0 0.34902 0 0 0 0 0.313726 0 0 0 0.12 0"/>
<feBlend mode="normal" in2="BackgroundImageFix" result="effect1_dropShadow"/>
<feBlend mode="normal" in="SourceGraphic" in2="effect1_dropShadow" result="shape"/>
</filter>
<linearGradient id="paint0_linear" x1="11.1463" y1="9.5" x2="39.0808" y2="40.6708" gradientUnits="userSpaceOnUse">
<stop stop-color="white"/>
<stop offset="0.0001" stop-color="white"/>
<stop offset="1" stop-color="#FEFAF7"/>
</linearGradient>
</defs>
</svg>
