<svg width="52" height="52" viewBox="0 0 52 52" fill="none" xmlns="http://www.w3.org/2000/svg">
<g filter="url(#filter0_d)">
<circle cx="26" cy="24" r="21" fill="url(#paint0_linear)"/>
<circle cx="26" cy="24" r="21" stroke="#653024"/>
</g>
<path d="M21.75 28.5C20.8 28.5 20 29.3 20 30.25C20 31.2 20.8 32 21.75 32C22.7 32 23.5 31.2 23.5 30.25C23.5 29.3 22.7 28.5 21.75 28.5ZM21.75 31C21.35 31 21 30.65 21 30.25C21 29.85 21.35 29.5 21.75 29.5C22.15 29.5 22.5 29.85 22.5 30.25C22.5 30.65 22.15 31 21.75 31Z" fill="#653024"/>
<path d="M28.75 28.5C27.8 28.5 27 29.3 27 30.25C27 31.2 27.75 32 28.75 32C29.7 32 30.5 31.2 30.5 30.25C30.5 29.3 29.7 28.5 28.75 28.5ZM28.75 31C28.35 31 28 30.65 28 30.25C28 29.85 28.35 29.5 28.75 29.5C29.15 29.5 29.5 29.85 29.5 30.25C29.5 30.65 29.15 31 28.75 31Z" fill="#653024"/>
<path d="M33.5 26.55V26.5H33.45L31.7 23.75C32.5 23.3 33 22.5 33 21.65V21.35C33 20.05 31.95 19 30.65 19H26.4C25.45 19 24.55 19.6 24.2 20.5H19.5C18.65 20.5 18 21.15 18 22V30.5H19V22C19 21.7 19.2 21.5 19.5 21.5H24.95L25 21.1C25.15 20.45 25.7 20 26.35 20H30.6C31.4 20 32 20.6 32 21.35V21.6C32 22.35 31.4 22.95 30.65 22.95H29V27.45H32.9L33 27.6V29C33 29.3 32.8 29.5 32.5 29.5H31.5V30.5H32.5C33.35 30.5 34 29.85 34 29V27.35L33.5 26.55V26.55ZM30 26.5V24H30.75L32.3 26.5H30Z" fill="#653024"/>
<path d="M26.5 21H30.5V22H26.5V21Z" fill="#653024"/>
<path d="M27 27.5H28V23H24.5V30.5H25.5V24H27V27.5Z" fill="#653024"/>
<path d="M20 26.5H23.5V23H20V26.5ZM21 24H22.5V25.5H21V24Z" fill="#653024"/>
<defs>
<filter id="filter0_d" x="0.5" y="0.5" width="51" height="51" filterUnits="userSpaceOnUse" color-interpolation-filters="sRGB">
<feFlood flood-opacity="0" result="BackgroundImageFix"/>
<feColorMatrix in="SourceAlpha" type="matrix" values="0 0 0 0 0 0 0 0 0 0 0 0 0 0 0 0 0 0 127 0"/>
<feOffset dy="2"/>
<feGaussianBlur stdDeviation="2"/>
<feColorMatrix type="matrix" values="0 0 0 0 0.372549 0 0 0 0 0.34902 0 0 0 0 0.313726 0 0 0 0.12 0"/>
<feBlend mode="normal" in2="BackgroundImageFix" result="effect1_dropShadow"/>
<feBlend mode="normal" in="SourceGraphic" in2="effect1_dropShadow" result="shape"/>
</filter>
<linearGradient id="paint0_linear" x1="11.1463" y1="9.5" x2="39.0808" y2="40.6708" gradientUnits="userSpaceOnUse">
<stop stop-color="white"/>
<stop offset="0.0001" stop-color="white"/>
<stop offset="1" stop-color="#FEFAF7"/>
</linearGradient>
</defs>
</svg>
