<svg width="52" height="52" viewBox="0 0 52 52" fill="none" xmlns="http://www.w3.org/2000/svg">
<g filter="url(#filter0_d)">
<circle cx="26" cy="24" r="21" fill="url(#paint0_linear)"/>
<circle cx="26" cy="24" r="21" stroke="#653024"/>
</g>
<path d="M15.2727 17H30.0455L33.4545 21.5455H35.7273C36.9886 21.5455 38 22.5568 38 23.8182V27.2273H35.7273C35.7273 28.1314 35.3681 28.9985 34.7288 29.6379C34.0894 30.2772 33.2223 30.6364 32.3182 30.6364C31.414 30.6364 30.5469 30.2772 29.9076 29.6379C29.2683 28.9985 28.9091 28.1314 28.9091 27.2273H22.0909C22.0909 28.1314 21.7317 28.9985 21.0924 29.6379C20.4531 30.2772 19.586 30.6364 18.6818 30.6364C17.7777 30.6364 16.9106 30.2772 16.2712 29.6379C15.6319 28.9985 15.2727 28.1314 15.2727 27.2273H13V19.2727C13 18.0114 14.0114 17 15.2727 17ZM14.7045 18.7045V21.5455H23.7955V18.7045H14.7045ZM25.5 18.7045V21.5455H31.3409L29.1932 18.7045H25.5ZM18.6818 25.5227C18.2297 25.5227 17.7962 25.7023 17.4765 26.022C17.1569 26.3416 16.9773 26.7752 16.9773 27.2273C16.9773 27.6793 17.1569 28.1129 17.4765 28.4326C17.7962 28.7522 18.2297 28.9318 18.6818 28.9318C19.1339 28.9318 19.5674 28.7522 19.8871 28.4326C20.2068 28.1129 20.3864 27.6793 20.3864 27.2273C20.3864 26.7752 20.2068 26.3416 19.8871 26.022C19.5674 25.7023 19.1339 25.5227 18.6818 25.5227ZM32.3182 25.5227C31.8661 25.5227 31.4326 25.7023 31.1129 26.022C30.7932 26.3416 30.6136 26.7752 30.6136 27.2273C30.6136 27.6793 30.7932 28.1129 31.1129 28.4326C31.4326 28.7522 31.8661 28.9318 32.3182 28.9318C32.7703 28.9318 33.2038 28.7522 33.5235 28.4326C33.8431 28.1129 34.0227 27.6793 34.0227 27.2273C34.0227 26.7752 33.8431 26.3416 33.5235 26.022C33.2038 25.7023 32.7703 25.5227 32.3182 25.5227Z" fill="#653024"/>
<defs>
<filter id="filter0_d" x="0.5" y="0.5" width="51" height="51" filterUnits="userSpaceOnUse" color-interpolation-filters="sRGB">
<feFlood flood-opacity="0" result="BackgroundImageFix"/>
<feColorMatrix in="SourceAlpha" type="matrix" values="0 0 0 0 0 0 0 0 0 0 0 0 0 0 0 0 0 0 127 0"/>
<feOffset dy="2"/>
<feGaussianBlur stdDeviation="2"/>
<feColorMatrix type="matrix" values="0 0 0 0 0.372549 0 0 0 0 0.34902 0 0 0 0 0.313726 0 0 0 0.12 0"/>
<feBlend mode="normal" in2="BackgroundImageFix" result="effect1_dropShadow"/>
<feBlend mode="normal" in="SourceGraphic" in2="effect1_dropShadow" result="shape"/>
</filter>
<linearGradient id="paint0_linear" x1="11.1463" y1="9.5" x2="39.0808" y2="40.6708" gradientUnits="userSpaceOnUse">
<stop stop-color="white"/>
<stop offset="0.0001" stop-color="white"/>
<stop offset="1" stop-color="#FEFAF7"/>
</linearGradient>
</defs>
</svg>
