<svg width="52" height="52" viewBox="0 0 52 52" fill="none" xmlns="http://www.w3.org/2000/svg">
<g filter="url(#filter0_d)">
<circle cx="26" cy="24" r="21" fill="url(#paint0_linear)"/>
<circle cx="26" cy="24" r="21" stroke="#653024"/>
</g>
<path d="M38.4565 24.6957H37.913V22.5217C37.913 21.9215 37.4263 21.4348 36.8261 21.4348H35.1957L31.5007 16.8159C31.297 16.5613 31.0386 16.3558 30.7447 16.2146C30.4509 16.0734 30.129 16 29.803 16H25.9565C25.3563 16 24.8696 16.4868 24.8696 17.087V21.4348H16.1739C15.5737 21.4348 15.087 21.9215 15.087 22.5217V24.6957H14.5435C14.2432 24.6957 14 24.9389 14 25.2391V26.3261C14 26.6264 14.2432 26.8696 14.5435 26.8696H16.2286C16.2028 27.0486 16.1739 27.2269 16.1739 27.413C16.1739 29.5143 17.877 31.2174 19.9783 31.2174C22.0795 31.2174 23.7826 29.5143 23.7826 27.413C23.7826 27.2269 23.7537 27.0486 23.7279 26.8696H29.2724C29.2466 27.0486 29.2177 27.2269 29.2177 27.413C29.2177 29.5143 30.9209 31.2174 33.0221 31.2174C35.1233 31.2174 36.8264 29.5143 36.8264 27.413C36.8264 27.2269 36.7976 27.0486 36.7717 26.8696H38.4565C38.7568 26.8696 39 26.6264 39 26.3261V25.2391C39 24.9389 38.7568 24.6957 38.4565 24.6957ZM27.0435 18.1739H29.803L32.4117 21.4348H27.0435V18.1739ZM19.9783 29.0435C19.0791 29.0435 18.3478 28.3122 18.3478 27.413C18.3478 26.5139 19.0791 25.7826 19.9783 25.7826C20.8774 25.7826 21.6087 26.5139 21.6087 27.413C21.6087 28.3122 20.8774 29.0435 19.9783 29.0435ZM33.0217 29.0435C32.1226 29.0435 31.3913 28.3122 31.3913 27.413C31.3913 26.5139 32.1226 25.7826 33.0217 25.7826C33.9209 25.7826 34.6522 26.5139 34.6522 27.413C34.6522 28.3122 33.9209 29.0435 33.0217 29.0435Z" fill="#653024"/>
<defs>
<filter id="filter0_d" x="0.5" y="0.5" width="51" height="51" filterUnits="userSpaceOnUse" color-interpolation-filters="sRGB">
<feFlood flood-opacity="0" result="BackgroundImageFix"/>
<feColorMatrix in="SourceAlpha" type="matrix" values="0 0 0 0 0 0 0 0 0 0 0 0 0 0 0 0 0 0 127 0"/>
<feOffset dy="2"/>
<feGaussianBlur stdDeviation="2"/>
<feColorMatrix type="matrix" values="0 0 0 0 0.372549 0 0 0 0 0.34902 0 0 0 0 0.313726 0 0 0 0.12 0"/>
<feBlend mode="normal" in2="BackgroundImageFix" result="effect1_dropShadow"/>
<feBlend mode="normal" in="SourceGraphic" in2="effect1_dropShadow" result="shape"/>
</filter>
<linearGradient id="paint0_linear" x1="11.1463" y1="9.5" x2="39.0808" y2="40.6708" gradientUnits="userSpaceOnUse">
<stop stop-color="white"/>
<stop offset="0.0001" stop-color="white"/>
<stop offset="1" stop-color="#FEFAF7"/>
</linearGradient>
</defs>
</svg>
